<svg width="55" height="55" viewBox="0 0 55 55" fill="none" xmlns="http://www.w3.org/2000/svg">
<path d="M45.1533 47.4703C40.5194 47.4703 35.9411 46.4601 31.4184 44.4397C26.8957 42.4193 22.7808 39.5555 19.0736 35.8484C15.3665 32.1413 12.5028 28.0264 10.4824 23.5036C8.46198 18.9809 7.45178 14.4026 7.45178 9.76872C7.45178 9.10144 7.67421 8.54537 8.11907 8.10051C8.56392 7.65566 9.11999 7.43323 9.78728 7.43323H18.7956C19.3146 7.43323 19.778 7.60932 20.1858 7.96149C20.5936 8.31367 20.8345 8.73072 20.9087 9.21265L22.3545 16.9976C22.4286 17.5908 22.4101 18.0912 22.2988 18.499C22.1876 18.9068 21.9837 19.259 21.6872 19.5556L16.2933 25.005C17.0347 26.3767 17.9152 27.702 18.9346 28.9809C19.9541 30.2599 21.0755 31.4925 22.2988 32.6788C23.4481 33.828 24.6529 34.8938 25.9133 35.8762C27.1737 36.8586 28.5083 37.7576 29.917 38.5731L35.1441 33.3461C35.4777 33.0124 35.9133 32.7622 36.4508 32.5954C36.9884 32.4286 37.5166 32.3822 38.0356 32.4564L45.7094 34.0134C46.2284 34.1617 46.6547 34.4304 46.9884 34.8197C47.322 35.2089 47.4888 35.6445 47.4888 36.1264V45.1348C47.4888 45.8021 47.2664 46.3581 46.8215 46.803C46.3767 47.2478 45.8206 47.4703 45.1533 47.4703ZM14.1802 20.7789L17.8503 17.1088L16.905 11.8818H11.9559C12.1413 13.4017 12.4008 14.9031 12.7344 16.386C13.0681 17.8688 13.55 19.3331 14.1802 20.7789ZM34.0875 40.6862C35.5333 41.3164 37.0069 41.8169 38.5083 42.1876C40.0097 42.5583 41.5203 42.7993 43.0403 42.9105V38.0171L37.8132 36.9605L34.0875 40.6862Z" fill="#4C7A5E"/>
</svg>
