<svg width="43" height="40" viewBox="0 0 43 40" fill="none" xmlns="http://www.w3.org/2000/svg">
<path d="M7.16659 33.3333C6.18117 33.3333 5.33759 33.0069 4.63586 32.3542C3.93412 31.7014 3.58325 30.9167 3.58325 30V10C3.58325 9.08333 3.93412 8.29861 4.63586 7.64583C5.33759 6.99306 6.18117 6.66667 7.16659 6.66667H35.8333C36.8187 6.66667 37.6622 6.99306 38.364 7.64583C39.0657 8.29861 39.4166 9.08333 39.4166 10V30C39.4166 30.9167 39.0657 31.7014 38.364 32.3542C37.6622 33.0069 36.8187 33.3333 35.8333 33.3333H7.16659ZM21.4999 21.6667L7.16659 13.3333V30H35.8333V13.3333L21.4999 21.6667ZM21.4999 18.3333L35.8333 10H7.16659L21.4999 18.3333ZM7.16659 13.3333V10V30V13.3333Z" fill="#4C7A5E"/>
</svg>
