<svg width="58" height="54" viewBox="0 0 58 54" fill="none" xmlns="http://www.w3.org/2000/svg">
<path d="M9.6312 44.5768C8.31609 44.5768 7.19028 44.1412 6.25377 43.27C5.31726 42.3988 4.849 41.3516 4.849 40.1282V13.4368C4.849 12.2135 5.31726 11.1662 6.25377 10.295C7.19028 9.42387 8.31609 8.98828 9.6312 8.98828H47.8888C49.2039 8.98828 50.3297 9.42387 51.2662 10.295C52.2028 11.1662 52.671 12.2135 52.671 13.4368V40.1282C52.671 41.3516 52.2028 42.3988 51.2662 43.27C50.3297 44.1412 49.2039 44.5768 47.8888 44.5768H9.6312ZM28.76 29.0068L9.6312 17.8854V40.1282H47.8888V17.8854L28.76 29.0068ZM28.76 24.5582L47.8888 13.4368H9.6312L28.76 24.5582ZM9.6312 17.8854V13.4368V40.1282V17.8854Z" fill="#4C7A5E"/>
</svg>
