<svg width="24" height="24" viewBox="0 0 24 24" fill="none" xmlns="http://www.w3.org/2000/svg">
<g clip-path="url(#clip0_21_13)">
<path d="M16.0833 31.3015C12.9958 31.3015 10.3767 30.2545 8.22604 28.1604C6.07535 26.0663 5 23.5161 5 20.5098C5 18.0946 5.73229 15.9298 7.19687 14.0156C8.66146 12.1013 10.5812 10.8102 12.9562 10.1421C12.4285 10.0137 11.9139 9.82738 11.4125 9.58328C10.9111 9.33918 10.4625 9.02443 10.0667 8.63901C9.19583 7.79109 8.63507 6.78259 8.38437 5.61349C8.13368 4.44439 8.07431 3.25602 8.20625 2.04838C9.44653 1.91991 10.667 1.97773 11.8677 2.22182C13.0684 2.46592 14.1042 3.01193 14.975 3.85984C15.5819 4.45081 16.024 5.11887 16.301 5.86401C16.5781 6.60915 16.7562 7.39283 16.8354 8.21505C17.1785 7.41852 17.5941 6.66696 18.0823 5.96036C18.5705 5.25377 19.1181 4.60498 19.725 4.01401C20.0153 3.73137 20.3847 3.59005 20.8333 3.59005C21.2819 3.59005 21.6514 3.73137 21.9417 4.01401C22.2319 4.29665 22.3771 4.65637 22.3771 5.09318C22.3771 5.52998 22.2319 5.8897 21.9417 6.17234C21.3611 6.73762 20.8465 7.36071 20.3979 8.04161C19.9493 8.72252 19.6194 9.44838 19.4083 10.2192C21.7306 10.9387 23.6042 12.2427 25.0292 14.1312C26.4542 16.0197 27.1667 18.146 27.1667 20.5098C27.1667 23.5161 26.0913 26.0663 23.9406 28.1604C21.7899 30.2545 19.1708 31.3015 16.0833 31.3015ZM16.0833 28.2182C18.2736 28.2182 20.1406 27.4666 21.6844 25.9635C23.2281 24.4604 24 22.6425 24 20.5098C24 18.3772 23.2281 16.5593 21.6844 15.0562C20.1406 13.5531 18.2736 12.8015 16.0833 12.8015C13.8931 12.8015 12.026 13.5531 10.4823 15.0562C8.93854 16.5593 8.16667 18.3772 8.16667 20.5098C8.16667 22.6425 8.93854 24.4604 10.4823 25.9635C12.026 27.4666 13.8931 28.2182 16.0833 28.2182Z" fill="black"/>
</g>
<defs>
<clipPath id="clip0_21_13">
<rect width="24" height="24" fill="white"/>
</clipPath>
</defs>
</svg>
