<svg width="33" height="33" viewBox="0 0 33 33" fill="none" xmlns="http://www.w3.org/2000/svg">
<path d="M16.2075 28.6692C13.605 28.6692 11.3974 27.7628 9.58466 25.95C7.77187 24.1372 6.86548 21.9296 6.86548 19.3272C6.86548 17.2364 7.48272 15.3624 8.71719 13.7053C9.95167 12.0482 11.5698 10.9305 13.5717 10.3522C13.1268 10.241 12.6931 10.0797 12.2705 9.86843C11.8479 9.65713 11.4697 9.38465 11.1361 9.05101C10.4021 8.317 9.92942 7.44397 9.71812 6.43192C9.50681 5.41987 9.45676 4.39114 9.56798 3.34573C10.6134 3.23452 11.6421 3.28456 12.6542 3.49587C13.6662 3.70718 14.5392 4.17984 15.2733 4.91385C15.7848 5.42543 16.1574 6.00375 16.391 6.64879C16.6245 7.29383 16.7746 7.97223 16.8414 8.684C17.1305 7.99448 17.4809 7.34388 17.8923 6.7322C18.3038 6.12052 18.7654 5.55889 19.277 5.04731C19.5216 4.80264 19.833 4.6803 20.2112 4.6803C20.5893 4.6803 20.9007 4.80264 21.1454 5.04731C21.39 5.29198 21.5124 5.60338 21.5124 5.9815C21.5124 6.35963 21.39 6.67103 21.1454 6.9157C20.656 7.40504 20.2223 7.94443 19.8442 8.53386C19.466 9.1233 19.188 9.75166 19.01 10.4189C20.9674 11.0417 22.5467 12.1706 23.7478 13.8054C24.9489 15.4403 25.5494 17.2808 25.5494 19.3272C25.5494 21.9296 24.643 24.1372 22.8302 25.95C21.0175 27.7628 18.8099 28.6692 16.2075 28.6692ZM16.2075 26C18.0536 26 19.6273 25.3494 20.9285 24.0482C22.2297 22.747 22.8803 21.1733 22.8803 19.3272C22.8803 17.481 22.2297 15.9074 20.9285 14.6061C19.6273 13.3049 18.0536 12.6543 16.2075 12.6543C14.3613 12.6543 12.7876 13.3049 11.4864 14.6061C10.1852 15.9074 9.53461 17.481 9.53461 19.3272C9.53461 21.1733 10.1852 22.747 11.4864 24.0482C12.7876 25.3494 14.3613 26 16.2075 26Z" fill="black"/>
</svg>
